# xmcd CD database file
#
# Track frame offsets:
#	183
#	15070
#	39020
#	58605
#	75275
#	99765
#	119760
#	141838
#	161373
#	176938
#
# Disc length: 2549 seconds
#
# Revision: 3
# Processed by: cddbd v1.5.2PL0 Copyright (c) Steve Scherf et al.
# Submitted via: CDex 1.70beta2
#
DISCID=6a09f20a,6a09f30a
DTITLE=Peter Green and Friends - A Case For The Blues
DYEAR=1984
DGENRE=Rock-Blues
TTITLE0=Cranes Train Boogie
TTITLE1=Blowing All My Troubles Away
TTITLE2=Who's That Knocking
TTITLE3=The Case
TTITLE4=One More Night Without You
TTITLE5=Boogie All The Way
TTITLE6=Stranger Blues
TTITLE7=Dust My Broom
TTITLE8=Sweet Sixteen
TTITLE9=Zulu Gone West
EXTD=Peter Green featuring:\r\nRay Dorset, Vincent Crane, Jeff Wittaker YEAR: 1984
EXTT0=
EXTT1=
EXTT2=
EXTT3=
EXTT4=
EXTT5=
EXTT6=
EXTT7=
EXTT8=
EXTT9=
PLAYORDER=
